<mxfile host="app.diagrams.net" modified="2023-12-25T00:11:47.052Z" agent="Mozilla/5.0 (Windows NT 10.0; Win64; x64) AppleWebKit/537.36 (KHTML, like Gecko) Chrome/120.0.0.0 Safari/537.36 Edg/120.0.0.0" etag="XwWb3QU_EvXBZb5npCrH" version="22.1.11" type="device">
  <diagram name="Page-1" id="AlJ3lns5U3MM7vT5XkO_">
    <mxGraphModel dx="1525" dy="926" grid="0" gridSize="10" guides="1" tooltips="1" connect="1" arrows="1" fold="1" page="0" pageScale="1" pageWidth="850" pageHeight="1100" math="0" shadow="0">
      <root>
        <mxCell id="0" />
        <mxCell id="1" parent="0" />
        <mxCell id="6NIrD40vV8gY1TMhdgDX-19" style="rounded=0;orthogonalLoop=1;jettySize=auto;html=1;exitX=0.73;exitY=0.03;exitDx=0;exitDy=0;entryX=0;entryY=0.75;entryDx=0;entryDy=0;exitPerimeter=0;" parent="1" source="6NIrD40vV8gY1TMhdgDX-1" target="6NIrD40vV8gY1TMhdgDX-6" edge="1">
          <mxGeometry relative="1" as="geometry">
            <Array as="points">
              <mxPoint x="226" y="-44" />
            </Array>
          </mxGeometry>
        </mxCell>
        <mxCell id="iSw1SFKRkY77ffxVS9H3-3" value="Agree/Denial reservation" style="edgeLabel;html=1;align=center;verticalAlign=middle;resizable=0;points=[];" parent="6NIrD40vV8gY1TMhdgDX-19" vertex="1" connectable="0">
          <mxGeometry x="0.4166" y="2" relative="1" as="geometry">
            <mxPoint x="6" y="6" as="offset" />
          </mxGeometry>
        </mxCell>
        <mxCell id="iSw1SFKRkY77ffxVS9H3-47" value="" style="edgeStyle=orthogonalEdgeStyle;rounded=0;orthogonalLoop=1;jettySize=auto;html=1;entryX=0.69;entryY=-0.003;entryDx=0;entryDy=0;entryPerimeter=0;" parent="1" source="6NIrD40vV8gY1TMhdgDX-1" target="6NIrD40vV8gY1TMhdgDX-8" edge="1">
          <mxGeometry relative="1" as="geometry">
            <Array as="points">
              <mxPoint x="194" y="297" />
              <mxPoint x="180" y="297" />
              <mxPoint x="180" y="505" />
            </Array>
          </mxGeometry>
        </mxCell>
        <mxCell id="iSw1SFKRkY77ffxVS9H3-65" value="Request student&amp;nbsp;reports" style="edgeLabel;html=1;align=center;verticalAlign=middle;resizable=0;points=[];rotation=-90;" parent="iSw1SFKRkY77ffxVS9H3-47" vertex="1" connectable="0">
          <mxGeometry x="0.1482" relative="1" as="geometry">
            <mxPoint y="-4" as="offset" />
          </mxGeometry>
        </mxCell>
        <mxCell id="6NIrD40vV8gY1TMhdgDX-1" value="Lab Management System" style="ellipse;whiteSpace=wrap;html=1;fontSize=16;strokeWidth=1;aspect=fixed;points=[[0,0.47,0,0,0],[0.02,0.66,0,0,0],[0.04,0.29,0,0,0],[0.09,0.77,0,0,0],[0.13,0.16,0,0,0],[0.2,0.91,0,0,0],[0.25,0.07,0,0,0],[0.33,0.98,0,0,0],[0.4,0,0,0,0],[0.5,0,0,0,0],[0.5,1,0,0,0],[0.64,0,0,0,0],[0.65,0.98,0,0,0],[0.73,0.03,0,0,0],[0.82,0.89,0,0,0],[0.84,0.1,0,0,0],[0.9,0.79,0,0,0],[0.94,0.23,0,0,0],[0.96,0.71,0,0,0],[0.99,0.4,0,0,0],[1,0.55,0,0,0]];" parent="1" vertex="1">
          <mxGeometry x="125" y="151" width="137.93" height="92" as="geometry" />
        </mxCell>
        <mxCell id="6NIrD40vV8gY1TMhdgDX-12" style="edgeStyle=orthogonalEdgeStyle;rounded=0;orthogonalLoop=1;jettySize=auto;html=1;exitX=1;exitY=0.25;exitDx=0;exitDy=0;entryX=0.5;entryY=0;entryDx=0;entryDy=0;entryPerimeter=0;" parent="1" source="6NIrD40vV8gY1TMhdgDX-3" target="6NIrD40vV8gY1TMhdgDX-1" edge="1">
          <mxGeometry relative="1" as="geometry" />
        </mxCell>
        <mxCell id="6NIrD40vV8gY1TMhdgDX-13" value="Request reservation" style="edgeLabel;html=1;align=center;verticalAlign=middle;resizable=0;points=[];rotation=0;" parent="6NIrD40vV8gY1TMhdgDX-12" vertex="1" connectable="0">
          <mxGeometry x="-0.2248" y="3" relative="1" as="geometry">
            <mxPoint x="-66" y="2" as="offset" />
          </mxGeometry>
        </mxCell>
        <mxCell id="6NIrD40vV8gY1TMhdgDX-3" value="Undergraduate" style="rounded=1;whiteSpace=wrap;html=1;fontSize=16;" parent="1" vertex="1">
          <mxGeometry x="-268" y="-81" width="190" height="61" as="geometry" />
        </mxCell>
        <mxCell id="6NIrD40vV8gY1TMhdgDX-4" value="University admins" style="rounded=1;whiteSpace=wrap;html=1;fontSize=16;points=[[0,0,0,0,0],[0,0.25,0,0,0],[0,0.5,0,0,0],[0,0.75,0,0,0],[0,1,0,0,0],[0.25,0,0,0,0],[0.25,1,0,0,0],[0.5,0,0,0,0],[0.5,1,0,0,0],[0.75,0,0,0,0],[0.75,1,0,0,0],[0.97,0.05,0,0,0],[0.97,0.95,0,0,0],[1,0.25,0,0,0],[1,0.5,0,0,0],[1,0.75,0,0,0]];" parent="1" vertex="1">
          <mxGeometry x="-465" y="131.5" width="232" height="131" as="geometry" />
        </mxCell>
        <mxCell id="6NIrD40vV8gY1TMhdgDX-15" style="edgeStyle=orthogonalEdgeStyle;rounded=0;orthogonalLoop=1;jettySize=auto;html=1;exitX=0;exitY=0.5;exitDx=0;exitDy=0;entryX=0.64;entryY=0;entryDx=0;entryDy=0;entryPerimeter=0;" parent="1" source="6NIrD40vV8gY1TMhdgDX-6" target="6NIrD40vV8gY1TMhdgDX-1" edge="1">
          <mxGeometry relative="1" as="geometry">
            <mxPoint x="212.9599853515624" y="154.36003417968755" as="targetPoint" />
          </mxGeometry>
        </mxCell>
        <mxCell id="6NIrD40vV8gY1TMhdgDX-16" value="Request reservation" style="edgeLabel;html=1;align=center;verticalAlign=middle;resizable=0;points=[];" parent="6NIrD40vV8gY1TMhdgDX-15" vertex="1" connectable="0">
          <mxGeometry x="-0.4562" relative="1" as="geometry">
            <mxPoint x="14" as="offset" />
          </mxGeometry>
        </mxCell>
        <mxCell id="6NIrD40vV8gY1TMhdgDX-6" value="Postgraduate" style="rounded=1;whiteSpace=wrap;html=1;fontSize=16;" parent="1" vertex="1">
          <mxGeometry x="506.75" y="-102" width="141" height="82" as="geometry" />
        </mxCell>
        <mxCell id="iSw1SFKRkY77ffxVS9H3-4" style="edgeStyle=elbowEdgeStyle;rounded=0;orthogonalLoop=1;jettySize=auto;html=1;exitX=0.84;exitY=0.1;exitDx=0;exitDy=0;entryX=0;entryY=0.184;entryDx=0;entryDy=0;entryPerimeter=0;exitPerimeter=0;" parent="1" source="6NIrD40vV8gY1TMhdgDX-1" target="6NIrD40vV8gY1TMhdgDX-7" edge="1">
          <mxGeometry relative="1" as="geometry">
            <Array as="points">
              <mxPoint x="627" y="181" />
            </Array>
          </mxGeometry>
        </mxCell>
        <mxCell id="iSw1SFKRkY77ffxVS9H3-5" value="Request lab reports" style="edgeLabel;html=1;align=center;verticalAlign=middle;resizable=0;points=[];" parent="iSw1SFKRkY77ffxVS9H3-4" vertex="1" connectable="0">
          <mxGeometry x="-0.4726" relative="1" as="geometry">
            <mxPoint x="51" y="-1" as="offset" />
          </mxGeometry>
        </mxCell>
        <mxCell id="iSw1SFKRkY77ffxVS9H3-24" style="edgeStyle=orthogonalEdgeStyle;rounded=0;orthogonalLoop=1;jettySize=auto;html=1;exitX=0;exitY=0.75;exitDx=0;exitDy=0;entryX=0.96;entryY=0.71;entryDx=0;entryDy=0;entryPerimeter=0;" parent="1" source="6NIrD40vV8gY1TMhdgDX-7" target="6NIrD40vV8gY1TMhdgDX-1" edge="1">
          <mxGeometry relative="1" as="geometry">
            <Array as="points">
              <mxPoint x="733" y="249" />
              <mxPoint x="572" y="249" />
              <mxPoint x="572" y="229" />
              <mxPoint x="309" y="229" />
            </Array>
          </mxGeometry>
        </mxCell>
        <mxCell id="iSw1SFKRkY77ffxVS9H3-25" value="Request student&amp;nbsp;reports" style="edgeLabel;html=1;align=center;verticalAlign=middle;resizable=0;points=[];" parent="iSw1SFKRkY77ffxVS9H3-24" vertex="1" connectable="0">
          <mxGeometry x="0.3736" relative="1" as="geometry">
            <mxPoint as="offset" />
          </mxGeometry>
        </mxCell>
        <mxCell id="6NIrD40vV8gY1TMhdgDX-7" value="Lab staff" style="rounded=1;whiteSpace=wrap;html=1;fontSize=16;" parent="1" vertex="1">
          <mxGeometry x="733" y="166" width="185" height="125" as="geometry" />
        </mxCell>
        <mxCell id="6NIrD40vV8gY1TMhdgDX-8" value="Doctors" style="rounded=1;whiteSpace=wrap;html=1;fontSize=16;points=[[0,0,0,0,0],[0,0.25,0,0,0],[0,0.5,0,0,0],[0,0.75,0,0,0],[0,1,0,0,0],[0.23,0,0,0,0],[0.25,1,0,0,0],[0.45,0,0,0,0],[0.5,1,0,0,0],[0.7,0,0,0,0],[0.75,1,0,0,0],[0.9,0,0,0,0],[1,0.25,0,0,0],[1,0.5,0,0,0],[1,0.75,0,0,0],[1,1,0,0,0]];" parent="1" vertex="1">
          <mxGeometry x="97" y="505" width="120" height="60" as="geometry" />
        </mxCell>
        <mxCell id="6NIrD40vV8gY1TMhdgDX-9" value="" style="edgeStyle=none;orthogonalLoop=1;jettySize=auto;html=1;rounded=0;exitX=0.4;exitY=0;exitDx=0;exitDy=0;entryX=1;entryY=0.5;entryDx=0;entryDy=0;exitPerimeter=0;" parent="1" source="6NIrD40vV8gY1TMhdgDX-1" target="6NIrD40vV8gY1TMhdgDX-3" edge="1">
          <mxGeometry width="100" relative="1" as="geometry">
            <mxPoint x="185" y="39" as="sourcePoint" />
            <mxPoint x="62" y="-29" as="targetPoint" />
            <Array as="points">
              <mxPoint x="178" y="-50" />
            </Array>
          </mxGeometry>
        </mxCell>
        <mxCell id="6NIrD40vV8gY1TMhdgDX-11" value="Approval / Denial" style="edgeLabel;html=1;align=center;verticalAlign=middle;resizable=0;points=[];rotation=0;" parent="6NIrD40vV8gY1TMhdgDX-9" vertex="1" connectable="0">
          <mxGeometry x="0.547" relative="1" as="geometry">
            <mxPoint x="19" y="-1" as="offset" />
          </mxGeometry>
        </mxCell>
        <mxCell id="iSw1SFKRkY77ffxVS9H3-8" style="edgeStyle=orthogonalEdgeStyle;rounded=0;orthogonalLoop=1;jettySize=auto;html=1;entryX=0.94;entryY=0.23;entryDx=0;entryDy=0;entryPerimeter=0;exitX=0.003;exitY=0.31;exitDx=0;exitDy=0;exitPerimeter=0;" parent="1" source="6NIrD40vV8gY1TMhdgDX-7" target="6NIrD40vV8gY1TMhdgDX-1" edge="1">
          <mxGeometry relative="1" as="geometry">
            <mxPoint x="731" y="229" as="sourcePoint" />
            <Array as="points">
              <mxPoint x="731" y="205" />
              <mxPoint x="613" y="204" />
              <mxPoint x="613" y="172" />
            </Array>
          </mxGeometry>
        </mxCell>
        <mxCell id="iSw1SFKRkY77ffxVS9H3-9" value="Make lab reports" style="edgeLabel;html=1;align=center;verticalAlign=middle;resizable=0;points=[];" parent="iSw1SFKRkY77ffxVS9H3-8" vertex="1" connectable="0">
          <mxGeometry x="0.3599" y="3" relative="1" as="geometry">
            <mxPoint x="14" y="-3" as="offset" />
          </mxGeometry>
        </mxCell>
        <mxCell id="iSw1SFKRkY77ffxVS9H3-16" style="edgeStyle=elbowEdgeStyle;rounded=0;orthogonalLoop=1;jettySize=auto;html=1;entryX=-0.006;entryY=0.441;entryDx=0;entryDy=0;entryPerimeter=0;exitX=0.99;exitY=0.4;exitDx=0;exitDy=0;exitPerimeter=0;" parent="1" source="6NIrD40vV8gY1TMhdgDX-1" target="6NIrD40vV8gY1TMhdgDX-7" edge="1">
          <mxGeometry relative="1" as="geometry">
            <mxPoint x="263" y="199" as="sourcePoint" />
            <mxPoint x="733" y="217.28" as="targetPoint" />
            <Array as="points">
              <mxPoint x="602.43" y="209" />
            </Array>
          </mxGeometry>
        </mxCell>
        <mxCell id="iSw1SFKRkY77ffxVS9H3-17" value="Lab reservation request" style="edgeLabel;html=1;align=center;verticalAlign=middle;resizable=0;points=[];" parent="iSw1SFKRkY77ffxVS9H3-16" vertex="1" connectable="0">
          <mxGeometry x="-0.4726" relative="1" as="geometry">
            <mxPoint x="51" y="-1" as="offset" />
          </mxGeometry>
        </mxCell>
        <mxCell id="iSw1SFKRkY77ffxVS9H3-18" style="edgeStyle=orthogonalEdgeStyle;rounded=0;orthogonalLoop=1;jettySize=auto;html=1;exitX=0.003;exitY=0.31;exitDx=0;exitDy=0;exitPerimeter=0;entryX=1;entryY=0.55;entryDx=0;entryDy=0;entryPerimeter=0;" parent="1" target="6NIrD40vV8gY1TMhdgDX-1" edge="1">
          <mxGeometry relative="1" as="geometry">
            <mxPoint x="733" y="234" as="sourcePoint" />
            <mxPoint x="260" y="213" as="targetPoint" />
            <Array as="points">
              <mxPoint x="730" y="234" />
              <mxPoint x="588" y="233" />
              <mxPoint x="588" y="202" />
            </Array>
          </mxGeometry>
        </mxCell>
        <mxCell id="iSw1SFKRkY77ffxVS9H3-19" value="Approval / Denial" style="edgeLabel;html=1;align=center;verticalAlign=middle;resizable=0;points=[];" parent="iSw1SFKRkY77ffxVS9H3-18" vertex="1" connectable="0">
          <mxGeometry x="0.3599" y="3" relative="1" as="geometry">
            <mxPoint x="14" y="-3" as="offset" />
          </mxGeometry>
        </mxCell>
        <mxCell id="iSw1SFKRkY77ffxVS9H3-26" style="edgeStyle=orthogonalEdgeStyle;rounded=0;orthogonalLoop=1;jettySize=auto;html=1;exitX=0.9;exitY=0.79;exitDx=0;exitDy=0;entryX=0;entryY=0.774;entryDx=0;entryDy=0;entryPerimeter=0;exitPerimeter=0;" parent="1" source="6NIrD40vV8gY1TMhdgDX-1" target="6NIrD40vV8gY1TMhdgDX-7" edge="1">
          <mxGeometry relative="1" as="geometry">
            <mxPoint x="230.51645000000008" y="236.00000000000006" as="sourcePoint" />
            <mxPoint x="733.7399999999998" y="271.56" as="targetPoint" />
            <Array as="points">
              <mxPoint x="249" y="243" />
              <mxPoint x="559" y="243" />
              <mxPoint x="559" y="263" />
            </Array>
          </mxGeometry>
        </mxCell>
        <mxCell id="iSw1SFKRkY77ffxVS9H3-27" value="Deliver student reports" style="edgeLabel;html=1;align=center;verticalAlign=middle;resizable=0;points=[];" parent="iSw1SFKRkY77ffxVS9H3-26" vertex="1" connectable="0">
          <mxGeometry x="-0.4354" y="-3" relative="1" as="geometry">
            <mxPoint x="6" y="-3" as="offset" />
          </mxGeometry>
        </mxCell>
        <mxCell id="iSw1SFKRkY77ffxVS9H3-28" style="edgeStyle=orthogonalEdgeStyle;rounded=0;orthogonalLoop=1;jettySize=auto;html=1;exitX=0.002;exitY=0.894;exitDx=0;exitDy=0;entryX=0.82;entryY=0.89;entryDx=0;entryDy=0;entryPerimeter=0;exitPerimeter=0;" parent="1" source="6NIrD40vV8gY1TMhdgDX-7" target="6NIrD40vV8gY1TMhdgDX-1" edge="1">
          <mxGeometry relative="1" as="geometry">
            <Array as="points">
              <mxPoint x="733" y="262" />
              <mxPoint x="238" y="262" />
            </Array>
          </mxGeometry>
        </mxCell>
        <mxCell id="iSw1SFKRkY77ffxVS9H3-29" value="Request equipment maintenance" style="edgeLabel;html=1;align=center;verticalAlign=middle;resizable=0;points=[];" parent="iSw1SFKRkY77ffxVS9H3-28" vertex="1" connectable="0">
          <mxGeometry x="0.3032" relative="1" as="geometry">
            <mxPoint as="offset" />
          </mxGeometry>
        </mxCell>
        <mxCell id="iSw1SFKRkY77ffxVS9H3-46" style="edgeStyle=orthogonalEdgeStyle;rounded=0;orthogonalLoop=1;jettySize=auto;html=1;exitX=0.9;exitY=0;exitDx=0;exitDy=0;exitPerimeter=0;entryX=0.65;entryY=0.98;entryDx=0;entryDy=0;entryPerimeter=0;" parent="1" source="6NIrD40vV8gY1TMhdgDX-8" target="6NIrD40vV8gY1TMhdgDX-1" edge="1">
          <mxGeometry relative="1" as="geometry">
            <Array as="points">
              <mxPoint x="205" y="304" />
              <mxPoint x="215" y="304" />
            </Array>
          </mxGeometry>
        </mxCell>
        <mxCell id="iSw1SFKRkY77ffxVS9H3-66" value="Make student&amp;nbsp;reports" style="edgeLabel;html=1;align=center;verticalAlign=middle;resizable=0;points=[];rotation=-90;" parent="iSw1SFKRkY77ffxVS9H3-46" vertex="1" connectable="0">
          <mxGeometry x="-0.0498" y="1" relative="1" as="geometry">
            <mxPoint y="13" as="offset" />
          </mxGeometry>
        </mxCell>
        <mxCell id="iSw1SFKRkY77ffxVS9H3-48" style="edgeStyle=orthogonalEdgeStyle;rounded=0;orthogonalLoop=1;jettySize=auto;html=1;exitX=0.33;exitY=0.98;exitDx=0;exitDy=0;exitPerimeter=0;entryX=0.431;entryY=0.009;entryDx=0;entryDy=0;entryPerimeter=0;" parent="1" source="6NIrD40vV8gY1TMhdgDX-1" target="6NIrD40vV8gY1TMhdgDX-8" edge="1">
          <mxGeometry relative="1" as="geometry">
            <Array as="points">
              <mxPoint x="171" y="284" />
              <mxPoint x="149" y="284" />
            </Array>
          </mxGeometry>
        </mxCell>
        <mxCell id="iSw1SFKRkY77ffxVS9H3-64" value="Approval / Denial" style="edgeLabel;html=1;align=center;verticalAlign=middle;resizable=0;points=[];rotation=-90;" parent="iSw1SFKRkY77ffxVS9H3-48" vertex="1" connectable="0">
          <mxGeometry x="0.1507" y="-3" relative="1" as="geometry">
            <mxPoint x="3" y="-5" as="offset" />
          </mxGeometry>
        </mxCell>
        <mxCell id="iSw1SFKRkY77ffxVS9H3-49" style="edgeStyle=orthogonalEdgeStyle;rounded=0;orthogonalLoop=1;jettySize=auto;html=1;exitX=0.23;exitY=0;exitDx=0;exitDy=0;exitPerimeter=0;entryX=0.2;entryY=0.91;entryDx=0;entryDy=0;entryPerimeter=0;" parent="1" source="6NIrD40vV8gY1TMhdgDX-8" target="6NIrD40vV8gY1TMhdgDX-1" edge="1">
          <mxGeometry relative="1" as="geometry">
            <Array as="points">
              <mxPoint x="123" y="505" />
              <mxPoint x="123" y="260" />
              <mxPoint x="153" y="260" />
            </Array>
          </mxGeometry>
        </mxCell>
        <mxCell id="iSw1SFKRkY77ffxVS9H3-63" value="Request reservation" style="edgeLabel;html=1;align=center;verticalAlign=middle;resizable=0;points=[];rotation=-90;" parent="iSw1SFKRkY77ffxVS9H3-49" vertex="1" connectable="0">
          <mxGeometry x="-0.3271" y="4" relative="1" as="geometry">
            <mxPoint x="2" y="-26" as="offset" />
          </mxGeometry>
        </mxCell>
        <mxCell id="iSw1SFKRkY77ffxVS9H3-50" style="edgeStyle=orthogonalEdgeStyle;rounded=0;orthogonalLoop=1;jettySize=auto;html=1;exitX=0.97;exitY=0.05;exitDx=0;exitDy=0;exitPerimeter=0;entryX=0.25;entryY=0.07;entryDx=0;entryDy=0;entryPerimeter=0;" parent="1" source="6NIrD40vV8gY1TMhdgDX-4" target="6NIrD40vV8gY1TMhdgDX-1" edge="1">
          <mxGeometry relative="1" as="geometry">
            <Array as="points">
              <mxPoint x="160" y="138" />
            </Array>
          </mxGeometry>
        </mxCell>
        <mxCell id="iSw1SFKRkY77ffxVS9H3-57" value="Request lab reports" style="edgeLabel;html=1;align=center;verticalAlign=middle;resizable=0;points=[];" parent="iSw1SFKRkY77ffxVS9H3-50" vertex="1" connectable="0">
          <mxGeometry x="0.0271" y="-3" relative="1" as="geometry">
            <mxPoint x="-1" y="-3" as="offset" />
          </mxGeometry>
        </mxCell>
        <mxCell id="iSw1SFKRkY77ffxVS9H3-51" style="edgeStyle=orthogonalEdgeStyle;rounded=0;orthogonalLoop=1;jettySize=auto;html=1;exitX=0.13;exitY=0.16;exitDx=0;exitDy=0;exitPerimeter=0;entryX=1;entryY=0.25;entryDx=0;entryDy=0;entryPerimeter=0;" parent="1" source="6NIrD40vV8gY1TMhdgDX-1" target="6NIrD40vV8gY1TMhdgDX-4" edge="1">
          <mxGeometry relative="1" as="geometry">
            <Array as="points">
              <mxPoint x="143" y="164" />
            </Array>
          </mxGeometry>
        </mxCell>
        <mxCell id="iSw1SFKRkY77ffxVS9H3-58" value="Get lab reports" style="edgeLabel;html=1;align=center;verticalAlign=middle;resizable=0;points=[];" parent="iSw1SFKRkY77ffxVS9H3-51" vertex="1" connectable="0">
          <mxGeometry x="-0.0853" y="-1" relative="1" as="geometry">
            <mxPoint as="offset" />
          </mxGeometry>
        </mxCell>
        <mxCell id="iSw1SFKRkY77ffxVS9H3-52" style="edgeStyle=orthogonalEdgeStyle;rounded=0;orthogonalLoop=1;jettySize=auto;html=1;exitX=1;exitY=0.5;exitDx=0;exitDy=0;exitPerimeter=0;entryX=0.046;entryY=0.317;entryDx=0;entryDy=0;entryPerimeter=0;" parent="1" source="6NIrD40vV8gY1TMhdgDX-4" target="6NIrD40vV8gY1TMhdgDX-1" edge="1">
          <mxGeometry relative="1" as="geometry">
            <mxPoint x="117" y="177" as="targetPoint" />
            <Array as="points">
              <mxPoint x="-233" y="203" />
              <mxPoint x="-76" y="203" />
              <mxPoint x="-76" y="180" />
            </Array>
          </mxGeometry>
        </mxCell>
        <mxCell id="iSw1SFKRkY77ffxVS9H3-59" value="Request student&amp;nbsp;reports" style="edgeLabel;html=1;align=center;verticalAlign=middle;resizable=0;points=[];" parent="iSw1SFKRkY77ffxVS9H3-52" vertex="1" connectable="0">
          <mxGeometry x="0.2013" y="-2" relative="1" as="geometry">
            <mxPoint x="35" y="-3" as="offset" />
          </mxGeometry>
        </mxCell>
        <mxCell id="iSw1SFKRkY77ffxVS9H3-53" style="edgeStyle=orthogonalEdgeStyle;rounded=0;orthogonalLoop=1;jettySize=auto;html=1;exitX=0;exitY=0.47;exitDx=0;exitDy=0;exitPerimeter=0;entryX=1;entryY=0.75;entryDx=0;entryDy=0;entryPerimeter=0;" parent="1" source="6NIrD40vV8gY1TMhdgDX-1" target="6NIrD40vV8gY1TMhdgDX-4" edge="1">
          <mxGeometry relative="1" as="geometry">
            <Array as="points">
              <mxPoint x="-54" y="194" />
              <mxPoint x="-54" y="230" />
            </Array>
          </mxGeometry>
        </mxCell>
        <mxCell id="iSw1SFKRkY77ffxVS9H3-60" value="Get student&amp;nbsp;reports" style="edgeLabel;html=1;align=center;verticalAlign=middle;resizable=0;points=[];" parent="iSw1SFKRkY77ffxVS9H3-53" vertex="1" connectable="0">
          <mxGeometry x="-0.4293" y="2" relative="1" as="geometry">
            <mxPoint x="11" y="-2" as="offset" />
          </mxGeometry>
        </mxCell>
        <mxCell id="iSw1SFKRkY77ffxVS9H3-54" style="edgeStyle=orthogonalEdgeStyle;rounded=0;orthogonalLoop=1;jettySize=auto;html=1;exitX=0.02;exitY=0.66;exitDx=0;exitDy=0;exitPerimeter=0;entryX=0.97;entryY=0.95;entryDx=0;entryDy=0;entryPerimeter=0;" parent="1" source="6NIrD40vV8gY1TMhdgDX-1" target="6NIrD40vV8gY1TMhdgDX-4" edge="1">
          <mxGeometry relative="1" as="geometry">
            <Array as="points">
              <mxPoint x="128" y="240" />
              <mxPoint x="-54" y="240" />
              <mxPoint x="-54" y="256" />
            </Array>
          </mxGeometry>
        </mxCell>
        <mxCell id="iSw1SFKRkY77ffxVS9H3-61" value="Receive maintenance" style="edgeLabel;html=1;align=center;verticalAlign=middle;resizable=0;points=[];" parent="iSw1SFKRkY77ffxVS9H3-54" vertex="1" connectable="0">
          <mxGeometry x="-0.1904" relative="1" as="geometry">
            <mxPoint x="35" y="-4" as="offset" />
          </mxGeometry>
        </mxCell>
        <mxCell id="iSw1SFKRkY77ffxVS9H3-56" style="edgeStyle=orthogonalEdgeStyle;rounded=0;orthogonalLoop=1;jettySize=auto;html=1;exitX=0.75;exitY=1;exitDx=0;exitDy=0;exitPerimeter=0;entryX=0.09;entryY=0.77;entryDx=0;entryDy=0;entryPerimeter=0;" parent="1" source="6NIrD40vV8gY1TMhdgDX-4" target="6NIrD40vV8gY1TMhdgDX-1" edge="1">
          <mxGeometry relative="1" as="geometry">
            <Array as="points">
              <mxPoint x="-291" y="283" />
              <mxPoint x="-31" y="283" />
              <mxPoint x="-31" y="252" />
              <mxPoint x="137" y="252" />
            </Array>
          </mxGeometry>
        </mxCell>
        <mxCell id="iSw1SFKRkY77ffxVS9H3-62" value="Equipment maintained" style="edgeLabel;html=1;align=center;verticalAlign=middle;resizable=0;points=[];" parent="iSw1SFKRkY77ffxVS9H3-56" vertex="1" connectable="0">
          <mxGeometry x="0.0913" y="-3" relative="1" as="geometry">
            <mxPoint x="74" y="-34" as="offset" />
          </mxGeometry>
        </mxCell>
      </root>
    </mxGraphModel>
  </diagram>
</mxfile>
